<?xml version="1.0" standalone="no"?>
<!DOCTYPE svg PUBLIC "-//W3C//DTD SVG 1.1//EN" "http://www.w3.org/Graphics/SVG/1.1/DTD/svg11.dtd">
<svg version="1.1" id="Calque_1" xmlns="http://www.w3.org/2000/svg" xmlns:xlink="http://www.w3.org/1999/xlink" x="0px" y="0px" viewBox="0 0 1148.85 400" style="enable-background:new 0 0 1148.85 400;" xml:space="preserve" width="1148.8499755859375" height="400">
<g id="_x33_1_00000037683820889517228470000002738099215342673047_">
	<polygon points="177.36,150.19 177.36,75.63 155.9,75.63 155.9,151.48 166.5,176.75  "/>
	<polygon points="135.61,158.6 82.89,105.87 67.71,121.05 121.35,174.68 146.71,185.05  "/>
	<polygon points="221.23,215.52 295.79,215.52 295.79,194.06 219.94,194.06 194.67,204.66  "/>
	<polygon points="112.04,194.06 37.47,194.06 37.47,215.52 113.32,215.52 138.59,204.92  "/>
	<polygon points="197.65,250.98 250.37,303.7 265.54,288.53 211.91,234.89 186.55,224.52  "/>
	<polygon points="212.82,173.77 265.54,121.05 250.37,105.87 196.73,159.51 186.36,184.87  "/>
	<polygon points="120.44,235.81 67.71,288.53 82.89,303.7 136.52,250.07 146.89,224.71  "/>
	<polygon points="177.36,333.94 177.36,258.1 166.76,232.83 155.9,259.38 155.9,333.94  "/>
	<polygon points="211.91,234.89 282.12,263.6 290.24,243.74 221.23,215.52 192.53,215.52  "/>
	<polygon points="219.94,194.06 289.88,164.71 281.58,144.92 212.82,173.77 192.53,194.06  "/>
	<polygon points="177.36,258.1 206.71,328.04 226.49,319.73 197.65,250.98 177.36,230.69  "/>
	<polygon points="113.32,215.52 43.38,244.87 51.68,264.66 120.44,235.81 140.72,215.52  "/>
	<polygon points="136.52,250.07 107.82,320.28 127.68,328.4 155.9,259.38 155.9,230.69  "/>
	<polygon points="121.35,174.68 51.14,145.98 43.02,165.84 112.04,194.06 140.73,194.06  "/>
	<polygon points="155.9,151.48 126.55,81.54 106.76,89.84 135.61,158.6 155.9,178.88  "/>
	<polygon points="196.73,159.51 225.44,89.3 205.58,81.18 177.36,150.19 177.36,178.88  "/>
</g>
<g>
	<path d="M336.88,102.83c4.05-8.4,9.91-15.03,17.59-19.9c7.68-4.86,16.8-7.3,27.35-7.3c10.14,0,18.69,2.07,25.66,6.22   c6.96,4.15,12.19,9.32,15.67,15.52c3.48,6.2,5.48,12.47,5.99,18.82h-13.37c-0.51-5.02-2.1-9.78-4.76-14.29   c-2.66-4.51-6.4-8.17-11.22-10.99c-4.82-2.82-10.6-4.23-17.36-4.23c-7.89,0-14.7,1.94-20.44,5.84c-5.74,3.9-10.12,9.19-13.14,15.9   c-3.02,6.71-4.53,14.21-4.53,22.51s1.51,15.8,4.53,22.51c3.02,6.71,7.4,12.01,13.14,15.9c5.74,3.9,12.55,5.84,20.44,5.84   c6.76,0,12.55-1.41,17.36-4.23c4.82-2.82,8.55-6.48,11.22-10.99c2.66-4.5,4.25-9.27,4.76-14.29h13.37   c-0.51,6.35-2.51,12.63-5.99,18.82c-3.48,6.2-8.71,11.37-15.67,15.52c-6.97,4.15-15.52,6.22-25.66,6.22   c-10.55,0-19.67-2.43-27.35-7.3c-7.68-4.86-13.55-11.5-17.59-19.9c-4.05-8.4-6.07-17.77-6.07-28.12   C330.81,120.6,332.83,111.23,336.88,102.83z"/>
	<path d="M518.04,83.01c7.84,4.92,13.83,11.58,17.98,19.98c4.15,8.4,6.22,17.72,6.22,27.97c0,10.25-2.07,19.57-6.22,27.97   c-4.15,8.4-10.14,15.06-17.98,19.98c-7.84,4.92-16.98,7.38-27.43,7.38c-10.45,0-19.59-2.46-27.43-7.38   c-7.84-4.92-13.83-11.58-17.98-19.98c-4.15-8.4-6.22-17.72-6.22-27.97c0-10.24,2.07-19.56,6.22-27.97   c4.15-8.4,10.14-15.06,17.98-19.98s16.98-7.37,27.43-7.37C501.06,75.63,510.2,78.09,518.04,83.01z M510.82,169.36   c5.79-3.89,10.22-9.19,13.29-15.9c3.07-6.71,4.61-14.21,4.61-22.51s-1.54-15.8-4.61-22.51c-3.07-6.71-7.51-12.01-13.29-15.9   c-5.79-3.89-12.52-5.84-20.21-5.84c-7.68,0-14.42,1.94-20.21,5.84c-5.79,3.9-10.22,9.19-13.29,15.9   c-3.07,6.71-4.61,14.21-4.61,22.51s1.54,15.8,4.61,22.51c3.07,6.71,7.5,12.01,13.29,15.9c5.79,3.9,12.52,5.84,20.21,5.84   C498.29,175.2,505.03,173.26,510.82,169.36z"/>
	<path d="M569.28,76.86v97.11h55.32v11.06h-68.84V76.86H569.28z"/>
	<path d="M654.1,76.86v97.11h55.32v11.06h-68.84V76.86H654.1z"/>
	<path d="M738.92,87.92v37.49h47.94v11.06h-47.94v37.49h57.78v11.06h-71.3V76.86h71.3v11.06H738.92z"/>
	<path d="M813.83,102.83c4.05-8.4,9.91-15.03,17.59-19.9c7.68-4.86,16.8-7.3,27.35-7.3c10.14,0,18.69,2.07,25.66,6.22   c6.96,4.15,12.19,9.32,15.67,15.52c3.48,6.2,5.48,12.47,5.99,18.82h-13.37c-0.51-5.02-2.1-9.78-4.76-14.29s-6.4-8.17-11.22-10.99   c-4.82-2.82-10.6-4.23-17.36-4.23c-7.89,0-14.7,1.94-20.44,5.84c-5.74,3.9-10.12,9.19-13.14,15.9c-3.02,6.71-4.53,14.21-4.53,22.51   s1.51,15.8,4.53,22.51c3.02,6.71,7.4,12.01,13.14,15.9c5.73,3.9,12.55,5.84,20.44,5.84c6.76,0,12.55-1.41,17.36-4.23   c4.81-2.82,8.55-6.48,11.22-10.99c2.66-4.5,4.25-9.27,4.76-14.29h13.37c-0.51,6.35-2.51,12.63-5.99,18.82   c-3.48,6.2-8.71,11.37-15.67,15.52c-6.97,4.15-15.52,6.22-25.66,6.22c-10.55,0-19.67-2.43-27.35-7.3   c-7.68-4.86-13.55-11.5-17.59-19.9c-4.05-8.4-6.07-17.77-6.07-28.12C807.76,120.6,809.78,111.23,813.83,102.83z"/>
	<path d="M992.15,76.86v11.06h-33.8v97.11h-13.52V87.92h-33.8V76.86H992.15z"/>
	<path d="M1006.9,185.04V76.86h13.52v108.18H1006.9z"/>
	<path d="M1040.09,76.86h71.3v11.06h-57.78v37.49h47.94v11.06h-47.94v48.56h-13.52V76.86z"/>
</g>
<g>
	<path d="M337.59,242.16c4.52-9.26,11.22-16.57,20.09-21.91c8.87-5.35,19.54-8.02,32-8.02c11.46,0,21.22,2.26,29.27,6.78   c8.05,4.52,14.17,10.34,18.36,17.45c4.19,7.11,6.62,14.58,7.28,22.41h-27.62c-0.99-5.95-3.75-11.24-8.27-15.88   c-4.52-4.63-10.75-6.95-18.69-6.95c-6.39,0-11.96,1.63-16.7,4.88c-4.74,3.25-8.38,7.72-10.91,13.4c-2.54,5.68-3.8,11.93-3.8,18.77   c0,6.84,1.27,13.09,3.8,18.77c2.54,5.68,6.17,10.14,10.91,13.4c4.74,3.25,10.31,4.88,16.7,4.88c7.94,0,14.17-2.31,18.69-6.95   c4.52-4.63,7.28-9.92,8.27-15.88h27.62c-0.66,7.83-3.09,15.3-7.28,22.41c-4.19,7.11-10.31,12.93-18.36,17.45   c-8.05,4.52-17.81,6.78-29.27,6.78c-12.46,0-23.13-2.67-32-8.02c-8.88-5.35-15.57-12.65-20.09-21.91   c-4.52-9.26-6.78-19.57-6.78-30.92C330.81,261.73,333.06,251.42,337.59,242.16z"/>
	<path d="M533.23,331.3l-8.27-25.14h-46.97l-8.27,25.14h-29.11l42.34-116.43H520l42.34,116.43H533.23z M517.52,283.67l-11.41-34.56   c-0.66-1.87-1.1-3.86-1.32-5.95c-0.22-2.09-0.39-4.79-0.5-8.1c0-1.98-0.94-2.98-2.81-2.98c-1.77,0-2.65,0.99-2.65,2.98   c-0.22,6.18-0.88,10.86-1.98,14.06l-11.41,34.56H517.52z"/>
	<path d="M647.75,222.81c8.77,5.29,15.24,12.32,19.43,21.08c4.19,8.77,6.28,18.5,6.28,29.19c0,10.58-2.15,20.29-6.45,29.11   c-4.3,8.82-10.83,15.88-19.6,21.17c-8.77,5.29-19.54,7.94-32.33,7.94h-47.46V214.87h47.46   C628.1,214.87,638.99,217.52,647.75,222.81z M632.04,302.69c4.57-3.2,7.99-7.41,10.25-12.65c2.26-5.24,3.39-10.89,3.39-16.95   s-1.13-11.71-3.39-16.95c-2.26-5.24-5.68-9.45-10.25-12.65c-4.58-3.2-10.06-4.8-16.46-4.8h-20.18v68.8h20.18   C621.98,307.48,627.46,305.89,632.04,302.69z"/>
	<path d="M710.51,238.69v23.15h48.95v22.49h-48.95v23.15h59.54v23.81h-87.32V214.87h87.32v23.81H710.51z"/>
	<path d="M825.61,214.87l38.37,91.62c0.66,1.32,1.49,1.98,2.48,1.98c1.43,0,2.15-0.66,2.15-1.98c0-0.77-0.28-1.82-0.83-3.14   c-1.21-2.54-2.15-4.82-2.81-6.86c-0.66-2.04-0.99-4.11-0.99-6.2v-75.41h27.79V331.3h-42.34l-38.37-91.62   c-0.77-1.43-1.65-2.1-2.65-1.99c-1.32,0.33-1.98,1.05-1.98,2.15c0,0.66,0.28,1.65,0.83,2.97c1.21,2.54,2.15,4.82,2.81,6.86   c0.66,2.04,0.99,4.11,0.99,6.2v75.41h-27.78V214.87H825.61z"/>
	<path d="M907.81,242.16c4.52-9.26,11.22-16.57,20.09-21.91c8.87-5.35,19.54-8.02,32-8.02c11.46,0,21.22,2.26,29.27,6.78   c8.04,4.52,14.17,10.34,18.36,17.45c4.19,7.11,6.61,14.58,7.28,22.41h-27.62c-0.99-5.95-3.75-11.24-8.27-15.88   c-4.52-4.63-10.75-6.95-18.69-6.95c-6.39,0-11.96,1.63-16.7,4.88c-4.74,3.25-8.38,7.72-10.92,13.4c-2.54,5.68-3.8,11.93-3.8,18.77   c0,6.84,1.27,13.09,3.8,18.77c2.54,5.68,6.17,10.14,10.92,13.4c4.74,3.25,10.31,4.88,16.7,4.88c7.94,0,14.17-2.31,18.69-6.95   c4.52-4.63,7.28-9.92,8.27-15.88h27.62c-0.66,7.83-3.09,15.3-7.28,22.41c-4.19,7.11-10.31,12.93-18.36,17.45   c-8.05,4.52-17.81,6.78-29.27,6.78c-12.46,0-23.13-2.67-32-8.02c-8.88-5.35-15.57-12.65-20.09-21.91   c-4.52-9.26-6.78-19.57-6.78-30.92C901.03,261.73,903.28,251.42,907.81,242.16z"/>
	<path d="M1051.85,238.69v23.15h48.95v22.49h-48.95v23.15h59.54v23.81h-87.32V214.87h87.32v23.81H1051.85z"/>
</g>
</svg>